# xmcd
#
# Track frame offsets: 
#        150
#        19552
#        39334
#        57107
#        74633
#        96327
#
# Disc length: 1536 seconds
#
# Revision: 0
# Processed by: cddbd v1.5.2PL0 Copyright (c) Steve Scherf et al.
# Submitted via: ExactAudioCopy v0.95b4
#
DISCID=4905fe06
DTITLE=Jeff Murrell - Broken Man
DYEAR=2007
DGENRE=R&B
TTITLE0=Whatever
TTITLE1=Beautiful
TTITLE2=Plans For You
TTITLE3=Broken Man
TTITLE4=Interference
TTITLE5=Faith
EXTD=
EXTT0=
EXTT1=
EXTT2=
EXTT3=
EXTT4=
EXTT5=
PLAYORDER=
